<?xml version="1.0" standalone="no"?>
<!DOCTYPE svg PUBLIC "-//W3C//DTD SVG 20010904//EN"
 "http://www.w3.org/TR/2001/REC-SVG-20010904/DTD/svg10.dtd">
<svg version="1.0" xmlns="http://www.w3.org/2000/svg"
 width="700.000000pt" height="700.000000pt" viewBox="0 0 700.000000 700.000000"
 preserveAspectRatio="xMidYMid meet">
<metadata>
Created by potrace 1.11, written by Peter Selinger 2001-2013
</metadata>
<g transform="translate(0.000000,700.000000) scale(0.100000,-0.100000)"
fill="#000000" stroke="none">
<path d="M3398 6925 c-2 -1 -55 -5 -118 -9 -63 -4 -133 -9 -155 -11 -109 -14
-256 -37 -312 -50 -35 -8 -78 -17 -96 -20 -57 -10 -249 -66 -360 -106 -480
-172 -904 -438 -1263 -794 -324 -321 -553 -657 -749 -1099 -76 -171 -172 -485
-205 -671 -10 -60 -15 -89 -25 -135 -2 -14 -7 -56 -11 -95 -3 -38 -8 -73 -10
-76 -6 -11 -17 -239 -17 -354 0 -148 10 -323 23 -415 6 -41 13 -89 15 -107 19
-145 77 -390 136 -564 170 -509 442 -951 819 -1329 330 -330 677 -565 1096
-744 249 -105 588 -202 809 -230 48 -6 128 -17 155 -22 44 -7 272 -18 370 -18
101 0 319 11 360 18 14 3 49 7 79 10 94 10 251 38 341 61 8 2 51 13 95 24 266
66 593 202 856 357 119 70 335 217 407 277 430 360 733 740 947 1190 146 308
267 694 299 957 2 19 7 58 11 85 3 28 8 64 10 80 23 178 23 542 0 730 -2 17
-7 54 -10 84 -8 66 -13 94 -31 201 -12 64 -77 316 -103 396 -222 686 -634
1261 -1218 1703 -286 216 -721 435 -1056 532 -222 64 -447 109 -622 124 -38 3
-94 8 -124 11 -61 6 -338 13 -343 9z m72 -34 c0 -20 -103 -147 -176 -218 -183
-178 -427 -291 -673 -310 -71 -5 -83 -4 -75 8 65 106 213 262 313 329 89 60
222 124 311 150 121 36 300 60 300 41z m171 -1 c166 -19 350 -89 497 -188 90
-61 213 -182 271 -267 l52 -75 -50 0 c-27 0 -84 7 -128 15 -279 53 -527 206
-693 427 -33 44 -60 83 -60 89 0 11 5 11 111 -1z m272 -15 c66 -6 82 -9 137
-20 14 -3 43 -7 65 -11 22 -3 105 -21 184 -40 781 -189 1431 -620 1936 -1284
l50 -64 -82 66 c-97 79 -194 137 -298 179 -120 47 -208 68 -370 85 -33 3 -60
6 -61 7 0 1 -26 38 -57 83 -72 104 -210 234 -321 303 -156 97 -357 162 -536
175 -36 3 -66 5 -67 5 -1 1 -22 31 -47 69 -120 178 -314 331 -529 418 -43 17
-81 35 -85 39 -4 5 -2 6 3 3 6 -3 41 -9 78 -13z m-794 -14 c-139 -47 -313
-157 -424 -268 -62 -62 -111 -122 -178 -217 -9 -13 -28 -20 -67 -22 -216 -15
-398 -77 -579 -198 -128 -86 -259 -220 -328 -337 -11 -19 -26 -29 -43 -30
-259 -12 -500 -103 -702 -265 l-80 -65 60 78 c255 335 529 591 872 816 239
155 545 302 795 380 179 56 222 67 368 96 187 37 248 46 312 49 l50 1 -56 -18z
m410 -29 c116 -229 141 -537 64 -802 -25 -89 -81 -220 -93 -220 -15 0 -79 160
-106 265 -23 93 -28 132 -28 250 -1 77 2 163 6 191 17 118 109 371 129 358 5
-3 18 -22 28 -42z m-139 -137 c-10 -30 -21 -67 -23 -82 -3 -15 -10 -57 -17
-93 -13 -73 -16 -237 -6 -320 8 -57 39 -191 56 -235 5 -14 8 -25 7 -25 -1 0
-41 38 -88 84 -161 159 -395 283 -587 311 -39 6 -36 13 10 20 134 22 337 113
459 205 37 27 97 81 135 120 38 38 70 70 71 70 1 0 -7 -25 -17 -55z m425 -147
c123 -88 322 -175 439 -192 22 -4 41 -8 43 -10 2 -1 -23 -9 -54 -16 -229 -53
-427 -164 -585 -328 -38 -39 -68 -69 -68 -67 0 1 6 21 14 43 74 209 76 513 6
718 l-21 59 78 -79 c43 -43 110 -101 148 -128z m-1334 -236 c-5 -10 -27 -41
-48 -69 -160 -212 -382 -359 -637 -422 -91 -23 -236 -39 -236 -27 0 21 86 131
160 206 90 90 180 155 295 213 74 38 206 84 265 93 19 3 53 9 75 13 22 4 62 8
88 10 44 2 47 1 38 -17z m299 -13 c195 -46 385 -153 531 -299 61 -61 159 -188
159 -205 0 -13 -146 5 -245 30 -197 50 -372 150 -516 294 -47 47 -105 115
-129 150 l-43 64 79 -7 c43 -4 117 -16 164 -27z m1665 4 c-154 -239 -406 -417
-680 -484 -88 -21 -235 -36 -235 -24 0 19 102 147 170 215 120 118 269 209
432 263 96 32 204 53 287 56 l43 1 -17 -27z m260 7 c203 -39 412 -150 565
-300 68 -68 170 -196 170 -215 0 -10 -131 1 -196 15 -27 7 -56 13 -64 15 -43
9 -191 69 -249 101 -134 74 -285 204 -367 319 -65 91 -66 88 13 81 37 -3 95
-10 128 -16z m-2148 -76 c38 -85 79 -233 90 -328 8 -73 7 -229 -2 -282 -25
-162 -112 -401 -136 -377 -24 24 -86 199 -115 325 -3 13 -8 81 -11 152 -7 147
7 260 44 379 26 84 79 207 88 207 4 0 22 -34 42 -76z m1968 2 c66 -143 100
-304 98 -472 -1 -156 -37 -319 -98 -450 -43 -93 -43 -93 -99 46 -89 223 -104
470 -42 705 23 87 88 245 101 245 4 0 22 -33 40 -74z m-135 -65 c-5 -11 -22
-69 -37 -128 -22 -89 -27 -132 -27 -243 -1 -183 6 -232 61 -413 3 -9 -28 16
-68 56 -160 160 -331 256 -552 312 l-89 22 44 8 c61 11 61 11 134 35 71 22
193 80 259 122 72 45 192 147 235 198 44 53 58 63 40 31z m385 -174 c131 -99
310 -180 475 -213 38 -8 35 -10 -31 -23 -193 -38 -398 -150 -554 -303 -44 -43
-80 -78 -81 -78 -1 0 6 28 17 63 55 185 61 420 15 605 -14 57 -31 113 -38 125
-6 12 22 -12 63 -54 41 -42 101 -97 134 -122z m-2374 121 c-66 -192 -66 -494
0 -686 10 -30 19 -56 19 -58 0 -1 -37 35 -83 79 -93 93 -185 158 -302 216 -83
41 -217 86 -286 97 -47 8 -46 11 7 20 103 16 281 88 394 159 69 43 186 142
227 190 20 25 38 43 40 41 2 -1 -6 -28 -16 -58z m482 -176 c109 -68 216 -114
334 -145 l92 -24 -76 -18 c-210 -49 -394 -154 -552 -314 -47 -48 -81 -80 -77
-73 9 15 44 133 52 177 34 177 29 348 -17 527 -10 42 -21 83 -24 91 -4 8 36
-27 88 -77 52 -50 133 -115 180 -144z m-1383 -188 c0 -17 -100 -144 -160 -204
-188 -189 -435 -303 -704 -326 -79 -7 -79 -10 -3 91 160 216 414 374 692 429
74 14 175 20 175 10z m298 -25 c279 -70 528 -247 678 -483 l18 -29 -84 7 c-46
4 -87 9 -90 11 -3 2 -22 6 -44 9 -59 10 -179 52 -259 92 -110 56 -199 119
-285 203 -70 69 -172 197 -172 216 0 13 149 -3 238 -26z m1661 9 c-21 -40 -97
-134 -151 -189 -121 -121 -300 -229 -462 -278 -72 -22 -230 -51 -279 -51 -24
0 -26 3 -18 18 22 42 96 132 164 200 180 183 474 316 710 321 46 1 47 0 36
-21z m286 -3 c205 -43 398 -151 558 -312 67 -68 161 -192 152 -201 -2 -2 -46
1 -98 7 -231 27 -459 130 -628 284 -63 59 -163 176 -185 219 l-16 31 69 -6
c37 -3 104 -13 148 -22z m1695 19 c0 -4 -21 -36 -47 -73 -111 -156 -287 -296
-468 -372 -125 -52 -212 -74 -344 -85 l-73 -6 18 28 c134 213 369 390 615 465
118 36 299 62 299 43z m274 -19 c267 -63 497 -211 657 -424 71 -96 72 -94 -7
-88 -276 23 -529 145 -723 346 -53 55 -141 171 -141 186 0 11 135 -2 214 -20z
m-4147 -62 c87 -194 122 -427 92 -613 -5 -30 -11 -68 -13 -85 -13 -79 -91
-285 -114 -299 -19 -11 -102 208 -127 334 -11 58 -14 301 -4 360 11 66 26 129
46 190 19 61 74 180 83 180 4 0 21 -30 37 -67z m1976 -12 c39 -85 71 -197 86
-301 10 -66 7 -290 -4 -345 -26 -131 -108 -350 -127 -339 -5 3 -22 34 -38 68
-112 239 -129 546 -45 809 22 68 76 187 85 187 4 0 23 -35 43 -79z m1964 12
c136 -300 136 -633 1 -935 -36 -80 -39 -79 -82 20 -108 247 -121 535 -38 797
23 73 73 185 82 185 4 0 21 -30 37 -67z m-4079 -85 c-21 -67 -48 -184 -54
-238 -19 -149 -1 -342 45 -488 l19 -64 -76 76 c-134 132 -251 209 -416 270
-50 19 -119 40 -154 46 -68 14 -72 19 -20 27 51 8 181 50 254 84 111 49 234
136 324 229 47 48 86 88 87 89 1 0 -3 -14 -9 -31z m397 -163 c137 -98 283
-166 428 -200 l76 -18 -87 -23 c-226 -57 -398 -158 -566 -329 -32 -33 -55 -51
-51 -40 90 232 89 554 -2 791 -3 8 28 -20 68 -62 41 -42 101 -95 134 -119z
m3990 -36 c127 -83 272 -144 408 -170 l62 -13 -80 -17 c-216 -47 -405 -152
-568 -315 -60 -60 -76 -72 -68 -51 80 210 85 518 11 732 -11 32 -20 59 -20 59
0 1 42 -39 93 -89 50 -50 124 -111 162 -136z m-2415 196 c-5 -14 -19 -61 -30
-105 -52 -203 -42 -449 25 -640 l16 -45 -83 84 c-155 156 -347 261 -573 315
-33 8 -51 15 -40 15 48 2 207 56 301 101 116 56 232 139 324 234 36 36 66 66
67 66 1 0 -2 -11 -7 -25z m400 -165 c129 -96 299 -173 441 -201 l64 -13 -60
-13 c-218 -49 -416 -157 -574 -315 -46 -45 -80 -74 -76 -63 16 42 43 135 39
135 -2 0 1 11 6 24 9 25 22 129 24 204 4 111 -23 289 -59 392 l-16 45 68 -69
c37 -38 102 -95 143 -126z m1545 87 c-38 -143 -49 -288 -33 -432 10 -84 42
-225 60 -260 6 -11 -21 12 -60 51 -164 166 -347 269 -575 323 l-72 18 58 12
c211 46 396 145 559 300 45 43 84 78 85 78 1 -1 -9 -42 -22 -90z m-4525 -348
c178 -46 361 -146 496 -272 63 -59 184 -210 184 -230 0 -8 -110 -2 -150 8 -8
2 -32 6 -54 10 -58 8 -181 52 -269 95 -174 87 -338 232 -443 394 l-18 29 84
-6 c47 -3 123 -16 170 -28z m1660 22 c0 -16 -91 -133 -153 -196 -126 -128
-310 -237 -487 -288 -85 -25 -268 -53 -278 -42 -11 10 75 122 158 206 79 80
199 168 295 217 67 33 238 90 296 97 30 4 56 9 58 11 9 8 111 4 111 -5z m328
-27 c200 -58 361 -151 501 -292 86 -86 170 -196 158 -208 -10 -10 -189 17
-277 43 -106 31 -228 87 -322 150 -88 58 -226 195 -287 282 l-44 64 91 -7 c51
-4 132 -18 180 -32z m1611 -26 c-85 -125 -241 -265 -379 -340 -76 -41 -191
-85 -280 -106 -104 -25 -230 -38 -230 -24 0 21 119 169 185 231 185 172 459
292 683 300 l63 2 -42 -63z m336 32 c180 -45 366 -146 499 -271 65 -61 186
-210 186 -230 0 -14 -121 -1 -230 26 -262 63 -476 203 -640 420 -27 36 -50 71
-50 77 0 16 128 4 235 -22z m1658 3 c-38 -61 -80 -112 -157 -189 -154 -154
-340 -254 -557 -299 -99 -21 -199 -30 -199 -17 0 21 95 140 172 216 80 77 196
160 293 208 112 56 300 105 408 107 l57 1 -17 -27z m-5768 -233 c57 -214 51
-443 -16 -641 -21 -64 -78 -189 -86 -189 -6 0 -60 122 -81 185 -50 149 -69
352 -46 500 22 147 38 203 96 329 l33 69 37 -80 c21 -44 49 -122 63 -173z
m1954 52 c74 -228 73 -478 -4 -707 -25 -74 -76 -176 -85 -170 -4 3 -24 44 -44
91 -125 297 -120 617 12 907 l36 79 28 -57 c16 -31 42 -96 57 -143z m3937 14
c93 -272 72 -595 -56 -853 -11 -24 -22 -43 -24 -43 -10 0 -67 134 -90 210 -55
184 -65 350 -30 546 10 60 47 172 82 247 l36 79 29 -59 c17 -32 40 -89 53
-127z m-2011 102 c134 -290 131 -650 -8 -938 l-31 -65 -39 83 c-112 242 -128
556 -41 817 27 81 70 175 80 175 3 0 20 -33 39 -72z m1836 -66 c-15 -29 -50
-169 -58 -236 -17 -130 -8 -304 20 -419 15 -59 32 -117 37 -128 18 -32 5 -22
-62 48 -86 90 -203 175 -323 233 -94 46 -254 100 -297 100 -35 0 -10 17 34 23
58 8 157 42 247 83 113 52 229 134 322 228 46 47 85 85 87 86 1 0 -2 -8 -7
-18z m-5508 -184 c84 -62 180 -114 270 -148 67 -25 197 -60 197 -54 0 3 5 2
11 -2 6 -4 -31 -18 -82 -31 -205 -53 -364 -142 -514 -288 -99 -96 -102 -98
-88 -60 42 116 58 227 57 395 -1 109 -6 155 -27 240 -14 58 -29 114 -33 125
-4 11 23 -11 60 -48 38 -38 105 -96 149 -129z m1554 146 c-8 -21 -22 -75 -33
-119 -36 -159 -19 -468 33 -592 7 -18 13 -36 13 -40 0 -4 -33 24 -72 63 -169
163 -330 255 -543 309 l-89 23 59 12 c208 42 442 175 588 331 28 31 53 56 55
54 1 -1 -4 -19 -11 -41z m398 -135 c126 -96 301 -177 449 -210 l59 -13 -91
-23 c-217 -54 -405 -163 -554 -321 l-67 -71 15 41 c22 62 42 146 51 208 10 69
10 269 1 335 -7 49 -41 184 -54 220 -4 10 24 -13 62 -51 38 -39 96 -90 129
-115z m1565 120 c-64 -195 -64 -476 0 -680 11 -35 20 -64 20 -65 0 0 -39 38
-87 85 -98 96 -195 164 -317 222 -82 38 -240 89 -280 89 -33 0 0 18 49 26 178
30 409 158 558 309 39 41 73 73 74 72 1 -2 -6 -28 -17 -58z m445 -150 c131
-87 280 -152 410 -179 31 -6 55 -13 53 -15 -2 -2 -19 -6 -38 -9 -66 -10 -222
-66 -304 -108 -105 -55 -216 -139 -298 -227 l-66 -70 23 68 c12 37 26 88 30
112 4 24 9 53 12 64 12 51 11 276 -2 350 -13 77 -36 171 -50 208 -4 10 30 -20
77 -65 46 -46 115 -104 153 -129z m-4420 -9 c-20 -118 -13 -328 15 -440 27
-110 37 -139 82 -233 l38 -78 -34 -67 c-41 -82 -81 -209 -101 -322 -14 -83
-14 -304 0 -375 16 -82 61 -219 96 -293 l38 -84 -33 -66 c-43 -86 -82 -211
-101 -321 -16 -98 -13 -333 5 -394 22 -74 4 -57 -32 30 -104 246 -180 508
-223 768 -33 200 -40 300 -40 555 0 220 5 307 25 453 9 63 14 95 34 209 13 76
47 209 83 328 34 112 152 424 159 417 2 -1 -3 -41 -11 -87z m6236 5 c103 -232
207 -608 234 -840 3 -27 8 -59 10 -70 20 -101 28 -546 12 -720 -7 -81 -12
-116 -31 -248 -8 -52 -35 -183 -48 -232 -5 -22 -12 -48 -13 -57 -23 -119 -171
-531 -206 -571 -4 -5 0 20 9 55 16 67 23 305 10 390 -13 90 -51 213 -94 306
l-43 92 39 83 c94 200 133 465 98 657 -5 25 -11 59 -14 75 -9 52 -62 202 -94
265 l-30 60 34 67 c32 65 80 201 91 260 25 140 30 331 10 423 -2 14 -7 41 -10
60 -5 33 -5 34 7 10 6 -14 20 -43 29 -65z m-5146 -232 c-68 -107 -197 -240
-302 -311 -161 -109 -347 -176 -551 -196 -65 -7 -66 1 -9 79 109 149 264 276
438 357 68 32 200 74 260 83 24 4 46 9 48 11 2 2 33 4 69 4 l64 0 -17 -27z
m263 11 c216 -44 413 -149 575 -306 45 -44 136 -160 158 -199 11 -21 10 -21
-58 -14 -284 28 -532 148 -724 349 -66 70 -103 116 -125 159 l-15 27 56 0 c31
0 91 -7 133 -16z m1711 -6 c-35 -66 -146 -191 -232 -261 -183 -149 -391 -233
-625 -252 -62 -5 -63 -5 -51 18 51 95 201 250 318 328 168 112 383 186 544
188 57 1 58 1 46 -21z m256 7 c170 -33 352 -117 483 -222 95 -77 211 -207 251
-281 l12 -23 -68 6 c-277 27 -517 140 -708 333 -63 63 -155 180 -155 197 0 8
130 1 185 -10z m1711 -13 c-8 -16 -36 -55 -63 -88 -196 -243 -481 -394 -787
-418 l-67 -6 22 38 c161 269 536 490 847 501 l63 2 -15 -29z m334 -5 c197 -55
369 -156 512 -299 56 -56 123 -141 147 -186 l12 -23 -73 6 c-242 21 -493 133
-665 297 -85 81 -193 211 -193 233 0 15 176 -5 260 -28z m-4193 -54 c110 -248
130 -518 57 -769 -26 -92 -82 -224 -95 -224 -25 0 -109 237 -127 355 -9 64 -9
297 1 354 18 112 105 351 127 351 4 0 21 -30 37 -67z m1966 13 c117 -238 138
-566 52 -822 -30 -90 -73 -184 -84 -184 -16 0 -81 151 -105 247 -25 98 -30
143 -30 273 -1 140 5 191 34 301 25 98 84 239 100 239 3 0 19 -24 33 -54z
m1969 2 c120 -248 140 -557 52 -823 -30 -93 -72 -185 -83 -185 -13 0 -69 132
-95 224 -60 206 -56 445 11 651 22 69 74 185 83 185 4 0 18 -24 32 -52z
m-4076 -114 c-80 -207 -78 -533 4 -749 7 -18 -18 1 -76 59 -146 147 -328 250
-526 301 -81 20 -89 24 -63 30 243 56 460 175 610 336 33 36 61 64 63 63 2 -1
-4 -19 -12 -40z m434 -171 c141 -94 291 -159 440 -188 8 -2 17 -4 20 -5 3 0
-37 -12 -88 -25 -198 -51 -380 -155 -526 -299 l-84 -83 19 55 c68 198 70 474
5 685 l-22 72 80 -81 c45 -44 115 -103 156 -131z m1530 154 c-44 -125 -62
-305 -47 -472 6 -71 40 -217 62 -269 5 -10 -30 19 -78 66 -148 148 -336 255
-524 300 -78 19 -135 41 -88 34 10 -1 45 5 79 15 222 62 376 150 526 299 47
47 86 85 87 84 2 0 -6 -26 -17 -57z m384 -113 c104 -84 287 -174 420 -209 105
-27 125 -35 85 -35 -39 0 -192 -47 -276 -85 -114 -53 -233 -136 -330 -233 -48
-48 -83 -78 -79 -67 14 32 44 142 51 183 33 201 19 406 -39 571 -9 24 -16 46
-16 48 0 3 23 -21 51 -52 29 -30 88 -85 133 -121z m1586 117 c-70 -222 -72
-479 -6 -685 l23 -72 -71 71 c-161 161 -369 277 -575 318 l-63 13 103 27 c203
53 415 179 545 321 32 35 60 65 60 65 1 1 -6 -25 -16 -58z m400 -129 c47 -35
135 -88 195 -117 110 -54 288 -110 309 -98 6 3 8 2 4 -2 -5 -5 -47 -18 -95
-31 -197 -49 -379 -153 -527 -298 l-84 -83 14 46 c44 145 56 220 57 361 0 127
-18 241 -62 379 -9 31 -6 29 47 -30 31 -34 95 -91 142 -127z m-5050 -247 c118
-17 290 -77 395 -138 136 -79 270 -201 354 -321 47 -68 49 -76 19 -71 -13 2
-52 6 -88 10 -295 29 -596 209 -777 463 -18 26 -33 52 -33 57 0 11 52 11 130
0z m1771 -4 c-22 -40 -102 -141 -156 -194 -184 -186 -431 -303 -687 -326 -43
-4 -78 -4 -78 -1 0 4 15 29 32 56 49 75 214 236 295 288 152 98 340 169 482
182 36 4 67 7 68 8 1 0 13 2 27 2 21 2 24 -1 17 -15z m247 -7 c198 -35 411
-144 558 -284 74 -70 184 -209 184 -232 0 -4 -26 -5 -57 -2 -317 25 -619 191
-807 441 -36 48 -63 90 -61 94 6 8 75 2 183 -17z m1691 -43 c-167 -234 -419
-400 -690 -454 -100 -20 -199 -30 -199 -19 0 13 46 80 96 138 104 122 209 206
354 279 128 64 233 95 390 114 92 11 95 7 49 -58z m284 43 c147 -29 292 -89
420 -176 113 -75 329 -311 311 -339 -7 -11 -127 2 -227 25 -196 46 -386 153
-532 301 -93 94 -172 201 -153 208 18 6 88 -1 181 -19z m1723 13 c8 -7 -130
-179 -183 -227 -196 -179 -416 -277 -684 -304 -55 -5 -62 -1 -47 28 18 36 114
151 168 202 166 157 425 281 629 300 36 4 68 8 69 10 4 3 43 -4 48 -9z m-5818
-145 c56 -144 74 -246 74 -412 -1 -165 -41 -339 -111 -477 l-28 -56 -31 64
c-141 299 -141 659 0 956 l30 65 17 -29 c10 -15 32 -65 49 -111z m1984 -36
c97 -264 77 -601 -49 -850 l-30 -59 -28 59 c-133 281 -144 616 -30 899 19 46
40 93 47 104 12 20 14 18 37 -27 13 -26 37 -83 53 -126z m1949 59 c91 -229
108 -472 48 -702 -22 -86 -63 -192 -89 -236 l-17 -28 -28 58 c-73 153 -108
308 -108 478 0 173 34 330 104 481 29 62 32 65 45 46 8 -11 28 -55 45 -97z
m1969 0 c119 -297 111 -618 -23 -904 l-30 -64 -18 34 c-157 293 -162 688 -14
992 26 53 29 55 42 38 7 -11 27 -54 43 -96z m-5667 -211 c38 -28 103 -70 146
-92 78 -42 272 -112 309 -112 12 0 24 -4 27 -10 3 -5 -3 -10 -13 -10 -35 0
-186 -48 -263 -83 -112 -52 -244 -145 -338 -238 -46 -46 -79 -75 -73 -64 13
25 52 173 60 230 8 55 8 269 0 333 -8 59 -44 195 -60 227 -6 11 23 -14 63 -55
41 -41 105 -98 142 -126z m1899 61 c79 -69 137 -109 230 -158 76 -41 221 -93
286 -103 40 -6 65 -20 39 -21 -56 -3 -195 -47 -292 -93 -113 -54 -225 -134
-320 -229 l-82 -82 24 70 c38 113 51 213 48 361 -4 155 -4 157 -61 370 -6 21
-2 19 26 -15 19 -22 65 -67 102 -100z m1649 116 c-16 -29 -50 -160 -58 -221
-16 -116 -8 -319 16 -425 13 -55 30 -113 38 -130 11 -21 -9 -6 -68 52 -89 87
-142 130 -225 180 -103 63 -270 127 -359 140 -56 7 -48 16 30 32 204 43 410
163 574 334 59 61 67 67 52 38z m424 -197 c42 -29 114 -71 160 -93 81 -39 240
-91 278 -91 33 0 8 -18 -35 -25 -69 -12 -204 -62 -287 -106 -102 -54 -198
-126 -285 -214 -38 -38 -66 -61 -62 -50 37 96 58 218 61 355 3 158 -10 256
-48 371 l-24 70 82 -82 c45 -45 117 -106 160 -135z m1539 181 c-37 -90 -57
-209 -58 -355 0 -80 2 -163 6 -185 4 -22 10 -53 13 -70 6 -33 31 -124 42 -152
4 -10 -25 14 -63 53 -88 88 -184 159 -283 212 -78 42 -272 112 -309 112 -12 0
-24 5 -27 10 -3 6 2 10 12 10 41 0 203 55 288 97 49 24 121 67 161 94 69 48
214 184 214 201 0 4 4 8 9 8 6 0 3 -16 -5 -35z m-3939 8 c-3 -10 -18 -63 -32
-118 -47 -184 -38 -431 21 -607 l23 -69 -82 82 c-153 153 -355 267 -547 309
-57 13 -78 30 -37 30 38 0 232 70 309 112 100 54 208 136 283 214 34 35 64 64
66 64 2 0 0 -8 -4 -17z m-923 -413 c-8 -32 -110 -159 -181 -225 -151 -139
-359 -244 -553 -279 -95 -17 -176 -25 -182 -18 -10 9 77 125 147 196 180 184
418 305 652 333 28 3 51 7 53 8 2 2 18 2 35 1 20 -2 31 -8 29 -16z m198 5
c148 -19 316 -81 445 -163 42 -28 116 -86 174 -137 40 -36 146 -166 165 -204
l15 -27 -57 3 c-180 9 -398 87 -569 205 -113 78 -315 301 -297 329 4 7 37 6
124 -6z m1780 6 c0 -18 -82 -124 -152 -197 -133 -138 -308 -242 -501 -298 -80
-23 -213 -42 -265 -37 -22 2 66 119 158 211 130 130 278 220 450 275 110 34
310 64 310 46z m200 -7 c142 -16 362 -106 490 -200 116 -85 290 -277 290 -320
0 -6 -12 -10 -27 -8 -16 1 -52 5 -81 8 -181 20 -370 97 -533 217 -112 83 -289
285 -273 311 3 5 22 7 42 4 20 -3 62 -8 92 -12z m1770 6 c0 -15 -79 -120 -137
-181 -175 -186 -454 -328 -678 -345 -38 -3 -75 -7 -82 -9 -51 -16 12 86 122
199 141 144 325 254 509 302 101 27 266 48 266 34z m241 -15 c220 -43 425
-151 584 -310 63 -63 167 -196 160 -204 -9 -9 -112 0 -190 15 -228 46 -441
166 -603 339 -74 79 -135 163 -127 175 6 9 81 3 176 -15z m-4114 -72 c71 -156
97 -280 97 -458 0 -186 -26 -311 -100 -475 -15 -33 -30 -60 -34 -60 -14 0 -92
185 -106 251 -48 233 -44 412 17 613 23 78 76 196 88 196 5 0 22 -30 38 -67z
m1962 24 c78 -171 102 -274 106 -457 3 -130 -3 -192 -29 -305 -15 -67 -93
-255 -106 -255 -7 0 -56 103 -78 165 -11 28 -33 113 -48 180 -10 49 -14 287
-4 335 4 25 11 62 14 84 14 86 97 296 117 296 5 0 17 -19 28 -43z m1969 1 c43
-89 76 -187 97 -298 4 -19 9 -99 10 -177 3 -146 -9 -237 -50 -358 -23 -69 -76
-185 -85 -185 -12 0 -69 135 -94 223 -58 200 -58 415 0 614 25 87 82 223 94
223 3 0 16 -19 28 -42z m-2109 -138 c-47 -151 -64 -334 -45 -490 6 -54 46
-217 61 -253 4 -10 -32 22 -81 70 -129 129 -276 220 -444 276 -63 21 -136 40
-162 42 -3 0 -9 3 -12 8 -3 4 -3 5 0 3 9 -7 175 41 251 73 84 34 170 83 251
142 62 46 192 175 192 192 0 6 2 8 5 6 2 -3 -5 -34 -16 -69z m-1975 -18 c-12
-43 -25 -93 -28 -112 -3 -19 -8 -48 -12 -65 -8 -44 -8 -231 0 -299 7 -55 51
-240 61 -256 3 -5 -35 31 -83 79 -146 144 -323 246 -516 296 -55 14 -101 27
-103 29 -2 2 17 6 42 9 120 17 331 110 450 200 38 28 101 84 140 124 38 40 70
72 71 73 1 0 -9 -35 -22 -78z m460 -147 c46 -30 117 -71 158 -90 71 -32 234
-85 264 -85 31 0 11 -18 -26 -24 -62 -10 -187 -54 -265 -93 -114 -58 -205
-123 -296 -213 l-86 -85 18 56 c70 222 70 498 0 702 l-19 56 84 -84 c47 -47
122 -109 168 -140z m1933 28 c130 -96 296 -170 453 -200 l45 -9 -55 -13 c-232
-56 -412 -154 -572 -312 -49 -47 -88 -85 -88 -84 0 2 7 22 16 46 68 191 75
457 18 658 -14 47 -26 91 -29 98 -2 7 26 -18 63 -56 37 -37 104 -95 149 -128z
m1553 141 c-51 -146 -69 -392 -41 -544 11 -57 41 -168 58 -209 3 -8 -21 14
-53 49 -150 159 -352 278 -556 327 -43 10 -78 21 -78 26 0 4 6 7 14 7 8 0 54
11 102 25 184 53 371 167 504 306 36 37 66 68 67 69 1 0 -7 -25 -17 -56z m421
-146 c124 -88 248 -146 394 -183 78 -20 86 -24 60 -30 -233 -51 -423 -153
-588 -315 -48 -47 -85 -79 -81 -71 3 9 14 43 24 77 63 217 57 454 -18 691 -9
28 -2 23 67 -45 43 -43 106 -98 142 -124z m-5061 -233 c46 -6 180 -41 233 -62
139 -55 292 -157 398 -266 56 -58 149 -177 149 -192 0 -8 -114 -4 -160 6 -19
4 -48 10 -65 13 -98 17 -267 93 -382 170 -112 75 -264 231 -308 317 l-16 30
58 -6 c32 -4 74 -8 93 -10z m1761 -3 c-25 -47 -106 -146 -171 -210 -179 -175
-432 -292 -669 -309 l-85 -6 23 39 c82 139 251 288 436 386 106 56 314 111
438 116 33 2 37 0 28 -16z m240 -2 c272 -49 542 -219 705 -447 24 -34 44 -64
44 -68 0 -11 -123 -2 -200 15 -213 47 -390 140 -541 282 -64 61 -154 170 -178
216 -12 22 -12 22 51 17 35 -3 88 -10 119 -15z m1728 -2 c-22 -43 -113 -153
-173 -211 -157 -151 -368 -257 -590 -296 -69 -13 -156 -14 -156 -3 0 4 23 37
51 74 203 271 500 432 840 456 39 2 40 2 28 -20z m288 -9 c263 -60 499 -216
658 -435 25 -34 45 -65 45 -69 0 -4 -37 -5 -82 -2 -330 24 -674 239 -842 525
-10 17 108 8 221 -19z m1686 18 c-166 -285 -513 -500 -843 -524 l-84 -6 18 29
c64 101 195 238 287 301 159 110 307 169 489 197 114 17 142 18 133 3z m-5835
-87 c128 -285 126 -635 -5 -921 l-37 -81 -29 59 c-106 209 -139 491 -86 728
17 75 58 194 86 249 28 55 32 53 71 -34z m2029 -177 c26 -91 28 -111 27 -283
0 -157 -4 -197 -22 -263 -23 -84 -86 -245 -101 -260 -11 -11 -54 68 -83 153
-100 290 -77 623 59 884 l16 31 39 -82 c21 -44 50 -125 65 -180z m1904 190
c131 -288 137 -612 18 -899 -50 -121 -52 -121 -92 -34 -119 257 -134 549 -42
825 20 58 74 175 81 175 3 0 19 -30 35 -67z m1970 2 c74 -163 107 -324 103
-499 -4 -157 -35 -292 -102 -439 l-36 -79 -17 34 c-113 210 -151 494 -100 740
25 118 98 308 119 308 2 0 17 -29 33 -65z m-4090 -137 c-57 -172 -64 -429 -18
-608 14 -52 28 -103 32 -113 4 -10 -30 20 -76 65 -158 157 -369 269 -587 313
-40 8 -39 11 12 19 59 9 207 61 278 97 106 54 209 129 293 213 44 45 82 80 84
79 1 -1 -6 -30 -18 -65z m449 -145 c41 -27 102 -64 135 -80 73 -37 225 -90
279 -98 22 -3 41 -7 43 -9 2 -2 -20 -9 -49 -16 -223 -53 -411 -156 -568 -312
-46 -46 -80 -74 -76 -63 4 11 19 63 34 115 23 86 25 113 25 275 0 162 -2 189
-25 275 -15 52 -29 103 -33 112 -3 9 31 -21 77 -66 46 -45 117 -105 158 -133z
m1515 121 c-13 -49 -29 -116 -34 -149 -9 -62 -7 -301 3 -345 3 -14 8 -36 11
-50 4 -22 22 -87 42 -155 4 -11 -14 2 -40 31 -143 158 -356 283 -576 337 -88
22 -88 27 -1 41 53 8 188 59 258 97 120 64 179 107 270 198 48 47 88 86 90 85
1 -1 -9 -41 -23 -90z m390 -74 c129 -102 317 -191 472 -223 l68 -14 -45 -8
c-199 -33 -424 -152 -587 -311 -46 -44 -83 -79 -83 -77 0 2 9 32 20 66 37 118
49 214 45 362 -3 133 -14 193 -61 353 -5 16 11 4 52 -38 33 -34 86 -84 119
-110z m1588 100 c-37 -110 -56 -258 -49 -385 3 -60 8 -123 11 -139 17 -83 38
-164 51 -194 12 -30 3 -23 -64 45 -147 149 -330 255 -532 309 l-102 28 89 22
c217 53 440 186 573 341 19 23 38 42 41 42 3 1 -5 -31 -18 -69z m-5641 4 c79
-85 210 -180 323 -234 98 -48 252 -99 304 -101 14 0 -12 -11 -59 -23 -226 -60
-400 -157 -554 -311 l-84 -84 18 52 c71 202 75 468 11 690 -11 37 -18 67 -16
67 2 0 28 -25 57 -56z m798 -363 c0 -5 -26 -45 -58 -88 -128 -171 -318 -310
-522 -381 -108 -37 -244 -64 -305 -60 l-48 3 60 80 c68 92 175 195 261 254
115 78 295 157 402 176 93 17 116 20 161 23 27 2 49 -1 49 -7z m276 -22 c212
-48 394 -148 545 -298 67 -67 159 -185 159 -204 0 -13 -123 -3 -213 18 -262
61 -494 210 -649 418 -32 43 -58 83 -58 88 0 14 113 2 216 -22z m1694 23 c0
-22 -98 -143 -180 -222 -180 -175 -431 -290 -669 -307 l-83 -6 18 29 c138 219
375 395 630 468 121 35 284 57 284 38z m259 -19 c146 -29 314 -103 438 -194
78 -57 198 -180 252 -258 l45 -64 -85 6 c-296 22 -610 196 -791 440 -32 43
-58 83 -58 88 0 12 96 3 199 -18z m1711 18 c0 -19 -96 -140 -170 -212 -185
-182 -430 -296 -679 -316 l-84 -6 33 48 c176 255 453 431 754 478 109 17 146
19 146 8z m220 -7 c295 -46 594 -244 754 -498 l19 -29 -84 6 c-243 18 -494
135 -680 317 -74 73 -169 192 -169 212 0 10 70 6 160 -8z m-4076 -117 c117
-299 109 -599 -22 -898 -11 -26 -25 -49 -30 -53 -13 -8 -77 137 -103 234 -26
99 -36 176 -37 283 -1 170 31 325 101 480 30 68 31 69 47 47 9 -12 29 -54 44
-93z m1956 38 c115 -250 130 -554 40 -816 -31 -93 -70 -179 -81 -179 -7 0 -62
118 -83 180 -68 204 -70 469 -5 684 28 95 79 207 91 200 5 -3 22 -34 38 -69z
m1990 -46 c57 -149 74 -238 74 -404 1 -159 -11 -242 -50 -357 -29 -86 -75
-188 -84 -188 -19 0 -104 231 -125 340 -3 19 -8 96 -10 170 -3 121 0 166 20
263 10 51 51 171 81 235 28 63 28 64 46 43 9 -12 31 -58 48 -102z m-2141 -69
c-69 -221 -69 -486 0 -695 l20 -60 -57 60 c-158 165 -345 274 -567 330 -49 13
-80 24 -69 24 44 2 202 53 284 92 47 22 121 64 165 94 78 52 235 197 235 218
0 6 2 8 5 6 2 -3 -5 -34 -16 -69z m320 -55 c148 -135 350 -241 529 -276 l64
-12 -89 -22 c-220 -56 -410 -167 -571 -335 l-52 -55 15 45 c77 218 77 513 0
729 -8 24 -15 45 -15 47 0 2 17 -15 38 -38 20 -24 57 -61 81 -83z m1656 75
c-59 -166 -75 -397 -41 -574 11 -55 27 -115 41 -155 8 -24 15 -44 15 -45 0 -1
-39 37 -87 84 -89 87 -195 165 -289 213 -69 35 -238 93 -299 102 l-50 8 80 17
c146 33 295 99 420 188 72 51 215 187 215 205 0 6 2 8 5 5 3 -3 -2 -24 -10
-48z m-3941 -2 c-47 -132 -69 -354 -51 -506 9 -67 31 -163 51 -221 9 -24 16
-44 16 -45 0 0 -44 42 -98 94 -156 150 -320 240 -534 294 l-91 23 49 8 c65 11
59 9 147 39 165 55 321 152 442 275 44 44 81 81 82 81 1 0 -5 -19 -13 -42z
m381 -129 c135 -108 288 -180 475 -224 8 -2 24 -4 34 -4 25 -1 17 -9 -14 -14
-81 -15 -186 -51 -287 -97 -99 -46 -200 -117 -299 -212 l-92 -88 25 77 c65
203 62 472 -7 681 l-19 56 57 -60 c31 -33 89 -85 127 -115z m3970 -22 c124
-92 253 -153 410 -191 l90 -23 -78 -17 c-152 -34 -304 -106 -436 -205 -90 -69
-85 -64 -148 -133 -29 -31 -53 -55 -53 -54 0 2 7 23 15 47 75 211 77 481 6
708 l-20 63 67 -68 c37 -37 103 -94 147 -127z m-4999 -251 c219 -47 419 -157
576 -317 54 -56 148 -179 148 -194 0 -4 -33 -5 -73 -2 -333 26 -661 225 -843
511 l-18 29 70 -6 c38 -4 101 -13 140 -21z m1697 -3 c-134 -214 -377 -395
-630 -468 -89 -26 -268 -53 -279 -42 -8 7 67 114 127 181 49 54 177 156 254
202 61 37 203 98 265 114 66 18 178 36 233 38 l48 2 -18 -27z m294 -3 c255
-59 476 -201 637 -410 24 -30 48 -65 55 -77 11 -22 10 -23 -26 -23 -34 0 -109
10 -183 25 -51 10 -187 58 -245 87 -175 88 -350 243 -451 402 l-18 28 75 -7
c41 -3 111 -15 156 -25z m1678 3 c-146 -230 -400 -412 -670 -482 -85 -22 -245
-39 -245 -26 0 18 94 137 166 209 192 190 454 307 728 325 l39 2 -18 -28z
m253 8 c283 -55 529 -214 704 -455 21 -28 38 -55 38 -60 0 -14 -139 1 -237 25
-162 40 -324 121 -445 222 -91 75 -173 166 -223 246 l-27 43 69 -5 c37 -4 92
-11 121 -16z m1717 -8 c-180 -284 -509 -483 -840 -510 -41 -3 -75 -2 -75 2 0
19 101 147 170 215 88 87 184 154 302 210 89 43 233 88 307 97 25 3 47 6 48 7
2 2 26 3 54 5 l52 2 -18 -28z m-3875 -32 c69 -136 112 -323 112 -486 0 -104
-2 -129 -17 -217 -15 -90 -94 -310 -116 -323 -9 -6 -38 46 -69 126 -87 227
-97 490 -28 724 20 71 82 215 92 215 3 0 15 -18 26 -39z m1995 -62 c67 -166
80 -238 80 -454 -1 -134 -5 -174 -24 -245 -25 -93 -73 -220 -96 -253 -14 -20
-16 -17 -51 59 -81 178 -113 390 -91 596 15 137 113 416 137 392 6 -6 26 -48
45 -95z m-1760 -188 c145 -114 308 -193 467 -228 l79 -17 -88 -21 c-216 -53
-387 -149 -549 -310 l-80 -80 22 70 c39 122 52 220 49 360 -2 72 -5 139 -8
150 -2 11 -8 40 -12 64 -4 24 -18 75 -30 114 l-23 70 54 -60 c30 -34 83 -84
119 -112z m1616 151 c-5 -9 -17 -47 -26 -82 -37 -140 -44 -201 -40 -340 3
-131 20 -237 52 -330 l19 -55 -85 86 c-90 89 -191 164 -299 218 -71 36 -213
85 -282 96 l-45 8 35 9 c146 36 266 83 365 142 82 48 211 152 262 211 51 59
59 65 44 37z m-1985 -47 c-40 -117 -51 -199 -50 -370 1 -140 22 -271 60 -362
12 -27 -1 -18 -73 55 -153 153 -351 264 -548 308 l-80 17 93 23 c194 48 370
146 515 289 51 50 93 89 95 88 2 0 -4 -22 -12 -48z m2354 -117 c116 -92 282
-172 443 -213 l89 -22 -63 -12 c-207 -41 -411 -153 -573 -314 -43 -43 -75 -70
-71 -60 4 10 18 61 32 113 48 185 40 448 -18 617 -10 31 -19 58 -19 60 0 2 30
-28 68 -65 37 -38 87 -85 112 -104z m-3972 24 c38 -34 146 -104 217 -140 146
-74 306 -118 454 -125 l62 -3 38 -58 c196 -295 535 -490 885 -509 53 -3 62 -7
80 -33 61 -87 127 -166 186 -222 105 -102 268 -203 400 -247 30 -11 60 -23 65
-28 7 -7 7 -8 0 -5 -5 3 -39 9 -75 12 -424 40 -936 215 -1345 459 -368 218
-722 540 -990 897 -46 62 -42 62 23 2z m5460 16 c-12 -18 -53 -71 -90 -117
-552 -689 -1327 -1128 -2202 -1250 -100 -14 -124 -15 -110 -4 10 7 25 13 33
13 31 0 219 100 297 158 120 89 197 171 305 324 14 19 27 23 80 26 188 8 402
83 583 204 80 54 232 207 286 288 24 36 44 66 45 68 1 1 31 5 66 8 162 12 304
52 452 125 76 37 194 117 247 166 34 31 36 29 8 -9z m-4473 -313 c150 -34 306
-105 420 -190 105 -79 216 -197 281 -299 l18 -29 -72 6 c-327 29 -630 200
-815 459 -26 36 -47 69 -47 73 0 11 134 -2 215 -20z m1695 19 c0 -17 -102
-147 -162 -206 -192 -190 -429 -300 -696 -324 -86 -8 -86 -12 -10 91 187 252
524 434 821 444 26 0 47 -2 47 -5z m186 -5 c165 -23 331 -86 472 -181 89 -59
241 -208 294 -288 l36 -55 -25 -3 c-40 -6 -212 25 -296 52 -219 72 -430 225
-560 408 -26 36 -47 68 -47 72 0 9 38 7 126 -5z m1784 6 c0 -23 -97 -143 -184
-228 -130 -128 -374 -258 -532 -283 -22 -3 -41 -7 -44 -9 -3 -2 -44 -7 -90
-11 l-84 -7 18 29 c160 251 426 432 725 493 87 18 191 27 191 16z m-1900 -87
c41 -94 70 -187 87 -288 12 -68 11 -282 -2 -355 -21 -127 -93 -330 -123 -348
-12 -8 -66 111 -97 218 -59 206 -58 439 4 640 25 80 80 205 91 205 4 0 22 -33
40 -72z m-155 -129 c-13 -41 -26 -95 -30 -119 -3 -25 -9 -54 -12 -64 -3 -10
-5 -76 -5 -145 1 -129 23 -278 56 -370 l16 -44 -81 81 c-93 93 -189 162 -304
220 -87 44 -212 86 -288 97 -54 8 -56 13 -6 19 19 3 63 14 99 24 188 55 352
153 490 292 47 47 86 85 87 85 1 -1 -9 -35 -22 -76z m460 -149 c127 -83 264
-141 401 -171 l59 -12 -70 -17 c-223 -53 -405 -153 -563 -311 l-79 -79 23 81
c35 119 46 200 46 334 0 121 -22 258 -56 354 -9 24 -16 44 -16 45 0 1 39 -37
88 -85 48 -47 123 -110 167 -139z m-1100 -221 c207 -45 382 -136 537 -278 66
-61 188 -212 188 -232 0 -10 -109 -5 -150 6 -8 2 -31 6 -51 9 -45 7 -187 55
-259 89 -151 70 -326 217 -420 353 l-52 76 63 -3 c35 -1 100 -10 144 -20z
m1700 -6 c-161 -247 -446 -439 -730 -492 -93 -17 -185 -24 -185 -13 0 20 120
170 185 230 188 177 454 293 688 301 l60 2 -18 -28z"/>
</g>
</svg>
